<svg width="618.401" height="93.2" viewBox="0 0 618.401 93.2" xmlns="http://www.w3.org/2000/svg"><g id="svgGroup" stroke-linecap="round" fill-rule="evenodd" font-size="9pt" stroke="#000000" stroke-width="0.25mm" fill="#ffffff" style="stroke:#000000;stroke-width:0.25mm;fill:#ffffff"><path d="M 331.3 71.2 L 322.3 71.2 L 322.3 19.2 L 331 19.2 L 331 27.9 Q 333.8 23.7 338.1 20.85 A 17.205 17.205 0 0 1 347.302 18.009 A 20.858 20.858 0 0 1 347.9 18 A 20.994 20.994 0 0 1 352.317 18.44 Q 355.303 19.082 357.585 20.663 A 13.128 13.128 0 0 1 358.05 21 A 15.751 15.751 0 0 1 363.498 28.69 A 19.154 19.154 0 0 1 363.6 29 Q 366.7 24.4 370.95 21.2 A 15.669 15.669 0 0 1 377.741 18.317 A 21.446 21.446 0 0 1 381.5 18 A 21.437 21.437 0 0 1 386.388 18.523 Q 389.974 19.362 392.463 21.551 A 12.994 12.994 0 0 1 394.15 23.35 A 18.992 18.992 0 0 1 397.561 30.622 Q 398.3 33.672 398.3 37.3 L 398.3 71.2 L 389.3 71.2 L 389.3 38 A 19.042 19.042 0 0 0 388.963 34.311 Q 388.527 32.105 387.528 30.361 A 10.982 10.982 0 0 0 386.8 29.25 A 7.974 7.974 0 0 0 380.987 25.954 A 10.678 10.678 0 0 0 379.9 25.9 A 11.926 11.926 0 0 0 373.141 28.027 A 15.996 15.996 0 0 0 371.55 29.25 Q 367.7 32.6 364.8 37.1 L 364.8 71.2 L 355.8 71.2 L 355.8 38 A 19.042 19.042 0 0 0 355.463 34.311 Q 355.027 32.105 354.028 30.361 A 10.982 10.982 0 0 0 353.3 29.25 A 7.974 7.974 0 0 0 347.487 25.954 A 10.678 10.678 0 0 0 346.4 25.9 A 12.02 12.02 0 0 0 340.081 27.728 A 16.244 16.244 0 0 0 338.1 29.15 Q 334.2 32.4 331.3 36.8 L 331.3 71.2 Z M 102.6 3.6 L 99.7 11.6 Q 96.6 10.1 93.35 9.2 Q 90.557 8.427 86.915 8.318 A 40.705 40.705 0 0 0 85.7 8.3 A 21.173 21.173 0 0 0 77.795 9.755 A 19.981 19.981 0 0 0 74.25 11.6 A 21.167 21.167 0 0 0 67.884 18.181 A 26.978 26.978 0 0 0 66.3 21.1 Q 63.4 27.3 63.4 36.1 Q 63.4 44.5 66.25 50.8 A 25.677 25.677 0 0 0 69.836 56.628 A 21.423 21.423 0 0 0 74.15 60.6 A 19.703 19.703 0 0 0 85.295 64.097 A 23.894 23.894 0 0 0 85.7 64.1 A 33.715 33.715 0 0 0 89.671 63.879 Q 92.147 63.585 94.2 62.9 Q 97.8 61.7 101.2 59.8 L 104.1 67.7 A 37.561 37.561 0 0 1 99.605 69.744 A 47.894 47.894 0 0 1 95.65 71.05 A 33.592 33.592 0 0 1 90.685 72.041 Q 88.203 72.355 85.406 72.395 A 57.414 57.414 0 0 1 84.6 72.4 A 32.384 32.384 0 0 1 75.275 71.099 A 27.961 27.961 0 0 1 68.5 68.05 A 28.6 28.6 0 0 1 58.623 57.605 A 34.916 34.916 0 0 1 57.6 55.65 A 37.611 37.611 0 0 1 54.501 45.933 Q 53.725 41.667 53.701 36.814 A 62.816 62.816 0 0 1 53.7 36.5 Q 53.7 25.8 57.65 17.55 Q 61.6 9.3 68.85 4.65 A 29.371 29.371 0 0 1 81.53 0.239 A 37.292 37.292 0 0 1 85.8 0 A 45.639 45.639 0 0 1 90.858 0.268 A 35.2 35.2 0 0 1 94.9 0.95 A 38.224 38.224 0 0 1 102.375 3.495 A 35.605 35.605 0 0 1 102.6 3.6 Z M 252 3.6 L 249.1 11.6 Q 246 10.1 242.75 9.2 Q 239.957 8.427 236.315 8.318 A 40.705 40.705 0 0 0 235.1 8.3 A 21.173 21.173 0 0 0 227.195 9.755 A 19.981 19.981 0 0 0 223.65 11.6 A 21.167 21.167 0 0 0 217.284 18.181 A 26.978 26.978 0 0 0 215.7 21.1 Q 212.8 27.3 212.8 36.1 Q 212.8 44.5 215.65 50.8 A 25.677 25.677 0 0 0 219.236 56.628 A 21.423 21.423 0 0 0 223.55 60.6 A 19.703 19.703 0 0 0 234.695 64.097 A 23.894 23.894 0 0 0 235.1 64.1 A 33.715 33.715 0 0 0 239.071 63.879 Q 241.547 63.585 243.6 62.9 Q 247.2 61.7 250.6 59.8 L 253.5 67.7 A 37.561 37.561 0 0 1 249.005 69.744 A 47.894 47.894 0 0 1 245.05 71.05 A 33.592 33.592 0 0 1 240.085 72.041 Q 237.603 72.355 234.806 72.395 A 57.414 57.414 0 0 1 234 72.4 A 32.384 32.384 0 0 1 224.675 71.099 A 27.961 27.961 0 0 1 217.9 68.05 A 28.6 28.6 0 0 1 208.023 57.605 A 34.916 34.916 0 0 1 207 55.65 A 37.611 37.611 0 0 1 203.901 45.933 Q 203.125 41.667 203.101 36.814 A 62.816 62.816 0 0 1 203.1 36.5 Q 203.1 25.8 207.05 17.55 Q 211 9.3 218.25 4.65 A 29.371 29.371 0 0 1 230.93 0.239 A 37.292 37.292 0 0 1 235.2 0 A 45.639 45.639 0 0 1 240.258 0.268 A 35.2 35.2 0 0 1 244.3 0.95 A 38.224 38.224 0 0 1 251.775 3.495 A 35.605 35.605 0 0 1 252 3.6 Z M 532.3 67 L 536.1 59.5 A 18.557 18.557 0 0 0 539.244 61.626 Q 540.798 62.47 542.65 63.15 A 24.073 24.073 0 0 0 550.261 64.587 A 27.464 27.464 0 0 0 551.1 64.6 Q 556.492 64.6 559.335 62.885 A 7.738 7.738 0 0 0 559.55 62.75 Q 562.4 60.9 562.4 58 A 7.123 7.123 0 0 0 562.086 55.853 A 6.212 6.212 0 0 0 561.35 54.3 A 6.384 6.384 0 0 0 560.421 53.206 Q 559.407 52.234 557.734 51.281 A 22.3 22.3 0 0 0 557.5 51.15 A 28.462 28.462 0 0 0 555.506 50.157 Q 553.39 49.195 550.401 48.146 A 103.602 103.602 0 0 0 549.4 47.8 A 46.616 46.616 0 0 1 545.002 46.057 Q 542.888 45.083 541.212 43.995 A 19.335 19.335 0 0 1 538.45 41.85 A 11.324 11.324 0 0 1 535.156 35.854 A 16.794 16.794 0 0 1 534.8 32.3 Q 534.8 26.3 540.05 22.15 Q 544.454 18.669 551.708 18.108 A 37.527 37.527 0 0 1 554.6 18 A 40.794 40.794 0 0 1 559.046 18.231 Q 561.354 18.484 563.37 19.016 A 25.234 25.234 0 0 1 563.5 19.05 Q 567.4 20.1 570.5 21.7 L 568 29.1 Q 565.3 27.5 561.85 26.5 A 25.024 25.024 0 0 0 557.367 25.653 A 31.837 31.837 0 0 0 554.2 25.5 A 20.632 20.632 0 0 0 551.263 25.695 Q 548.177 26.14 546.3 27.6 A 9.322 9.322 0 0 0 544.942 28.874 Q 544.24 29.692 543.905 30.565 A 4.529 4.529 0 0 0 543.6 32.2 A 4.921 4.921 0 0 0 545.095 35.752 A 7.082 7.082 0 0 0 545.7 36.3 Q 547.765 37.972 553.698 39.934 A 84.459 84.459 0 0 0 553.9 40 A 67.753 67.753 0 0 1 558.962 41.898 Q 564.889 44.417 567.7 47.3 Q 571.6 51.3 571.6 57.3 Q 571.6 64.048 566.349 68.055 A 16.618 16.618 0 0 1 565.95 68.35 Q 561.21 71.748 553.762 72.295 A 40.423 40.423 0 0 1 550.8 72.4 Q 544.9 72.4 540.15 70.9 A 30.883 30.883 0 0 1 536.31 69.415 Q 534.329 68.484 532.748 67.336 A 18.229 18.229 0 0 1 532.3 67 Z M 579.1 67 L 582.9 59.5 A 18.557 18.557 0 0 0 586.044 61.626 Q 587.598 62.47 589.45 63.15 A 24.073 24.073 0 0 0 597.061 64.587 A 27.464 27.464 0 0 0 597.9 64.6 Q 603.292 64.6 606.135 62.885 A 7.738 7.738 0 0 0 606.35 62.75 Q 609.2 60.9 609.2 58 A 7.123 7.123 0 0 0 608.886 55.853 A 6.212 6.212 0 0 0 608.15 54.3 A 6.384 6.384 0 0 0 607.221 53.206 Q 606.207 52.234 604.534 51.281 A 22.3 22.3 0 0 0 604.3 51.15 A 28.462 28.462 0 0 0 602.306 50.157 Q 600.19 49.195 597.201 48.146 A 103.602 103.602 0 0 0 596.2 47.8 A 46.616 46.616 0 0 1 591.802 46.057 Q 589.688 45.083 588.012 43.995 A 19.335 19.335 0 0 1 585.25 41.85 A 11.324 11.324 0 0 1 581.956 35.854 A 16.794 16.794 0 0 1 581.6 32.3 Q 581.6 26.3 586.85 22.15 Q 591.254 18.669 598.508 18.108 A 37.527 37.527 0 0 1 601.4 18 A 40.794 40.794 0 0 1 605.846 18.231 Q 608.154 18.484 610.17 19.016 A 25.234 25.234 0 0 1 610.3 19.05 Q 614.2 20.1 617.3 21.7 L 614.8 29.1 Q 612.1 27.5 608.65 26.5 A 25.024 25.024 0 0 0 604.167 25.653 A 31.837 31.837 0 0 0 601 25.5 A 20.632 20.632 0 0 0 598.063 25.695 Q 594.977 26.14 593.1 27.6 A 9.322 9.322 0 0 0 591.742 28.874 Q 591.04 29.692 590.705 30.565 A 4.529 4.529 0 0 0 590.4 32.2 A 4.921 4.921 0 0 0 591.895 35.752 A 7.082 7.082 0 0 0 592.5 36.3 Q 594.565 37.972 600.498 39.934 A 84.459 84.459 0 0 0 600.7 40 A 67.753 67.753 0 0 1 605.762 41.898 Q 611.689 44.417 614.5 47.3 Q 618.4 51.3 618.4 57.3 Q 618.4 64.048 613.149 68.055 A 16.618 16.618 0 0 1 612.75 68.35 Q 608.01 71.748 600.562 72.295 A 40.423 40.423 0 0 1 597.6 72.4 Q 591.7 72.4 586.95 70.9 A 30.883 30.883 0 0 1 583.11 69.415 Q 581.129 68.484 579.548 67.336 A 18.229 18.229 0 0 1 579.1 67 Z M 424.7 93.2 L 415.7 93.2 L 415.7 32.5 A 11.015 11.015 0 0 0 415.573 30.764 Q 415.242 28.698 414.05 27.65 A 5.718 5.718 0 0 0 411.26 26.328 A 7.991 7.991 0 0 0 409.8 26.2 L 411.7 19.2 Q 417.562 19.2 420.622 22.164 A 10.15 10.15 0 0 1 423.2 26.5 Q 424.155 25.067 426.252 23.178 A 38.58 38.58 0 0 1 426.45 23 A 18.902 18.902 0 0 1 429.151 21.016 A 25.569 25.569 0 0 1 432.05 19.5 A 16.955 16.955 0 0 1 436.609 18.211 A 21.886 21.886 0 0 1 439.7 18 Q 445.7 18 450.95 21.15 A 22.329 22.329 0 0 1 458.128 28.117 A 27.464 27.464 0 0 1 459.4 30.25 Q 462.6 36.2 462.6 44.7 Q 462.6 53 459.4 59.25 A 27.846 27.846 0 0 1 455.466 65.082 A 23.029 23.029 0 0 1 451.05 68.95 Q 445.9 72.4 439.9 72.4 Q 435.3 72.4 431.3 70.55 A 30.352 30.352 0 0 1 427.884 68.711 Q 426.091 67.585 424.7 66.3 L 424.7 93.2 Z M 510.7 23.4 L 510.7 19.2 L 518.9 19.2 L 518.9 58.6 A 12.15 12.15 0 0 0 519.002 60.236 Q 519.334 62.67 520.75 63.55 Q 522.6 64.7 524.8 64.7 L 522.9 71.7 A 17.722 17.722 0 0 1 518.635 71.228 Q 512.998 69.828 511.403 64.28 A 13.59 13.59 0 0 1 511.3 63.9 A 21.307 21.307 0 0 1 508.19 67.326 A 28.498 28.498 0 0 1 505.05 69.75 Q 501.1 72.4 495 72.4 Q 488.5 72.4 483.2 69.1 A 22.947 22.947 0 0 1 475.787 61.574 A 27.923 27.923 0 0 1 474.75 59.75 A 27.228 27.228 0 0 1 472.12 51.808 A 36.644 36.644 0 0 1 471.6 45.5 A 33.142 33.142 0 0 1 472.597 37.231 A 27.968 27.968 0 0 1 474.75 31.5 Q 477.9 25.3 483.45 21.65 A 22.297 22.297 0 0 1 494.645 18.044 A 27.388 27.388 0 0 1 496.2 18 A 22.584 22.584 0 0 1 500.994 18.491 A 18.703 18.703 0 0 1 504.35 19.55 A 26.002 26.002 0 0 1 508.637 21.844 A 22.103 22.103 0 0 1 510.7 23.4 Z M 271.1 68.95 A 24.559 24.559 0 0 0 275.698 71.04 Q 279.753 72.4 284.4 72.4 Q 291.8 72.4 297.65 69 Q 303.5 65.6 306.9 59.45 A 26.255 26.255 0 0 0 309.553 52.309 A 34.184 34.184 0 0 0 310.3 45 A 34.542 34.542 0 0 0 309.815 39.092 A 25.795 25.795 0 0 0 306.85 30.65 Q 303.4 24.6 297.55 21.3 A 24.848 24.848 0 0 0 292.909 19.273 A 27.738 27.738 0 0 0 284.4 18 A 31.325 31.325 0 0 0 282.82 18.04 A 26.169 26.169 0 0 0 271.2 21.3 Q 265.3 24.6 261.9 30.7 A 26.023 26.023 0 0 0 259.151 38.29 A 35.006 35.006 0 0 0 258.5 45.2 A 34.82 34.82 0 0 0 258.765 49.554 A 27.451 27.451 0 0 0 261.85 59.35 Q 265.2 65.5 271.1 68.95 Z M 36.4 52.7 L 31.9 59.8 L 0 39.8 L 0 34.1 L 32 14 L 36.4 21 L 10.5 36.9 L 36.4 52.7 Z M 156.8 39.8 L 124.9 59.8 L 120.4 52.7 L 146.3 36.9 L 120.4 21 L 124.8 14 L 156.8 34.1 L 156.8 39.8 Z M 284.4 64.4 Q 292.3 64.4 296.7 59.05 A 18.802 18.802 0 0 0 300.519 50.96 A 27.105 27.105 0 0 0 301.1 45.2 Q 301.1 40 298.9 35.65 A 19.198 19.198 0 0 0 294.728 30.081 A 18.17 18.17 0 0 0 292.95 28.65 Q 289.2 26 284.4 26 A 19.249 19.249 0 0 0 279.174 26.672 A 14.037 14.037 0 0 0 272.1 31.2 A 17.878 17.878 0 0 0 268.426 38.574 Q 267.7 41.506 267.7 45 Q 267.7 50.2 269.9 54.65 A 19.437 19.437 0 0 0 273.43 59.69 A 17.627 17.627 0 0 0 275.85 61.75 Q 279.6 64.4 284.4 64.4 Z M 509.9 57.9 L 509.9 30 Q 507.2 28.1 503.95 26.95 Q 500.7 25.8 497.1 25.8 A 15.924 15.924 0 0 0 492.129 26.554 A 14.024 14.024 0 0 0 488.65 28.25 A 16.301 16.301 0 0 0 483.631 33.674 A 19.962 19.962 0 0 0 482.9 35.05 A 20.663 20.663 0 0 0 481.147 40.727 A 27.678 27.678 0 0 0 480.8 45.2 Q 480.8 50.8 482.9 55.15 A 17.602 17.602 0 0 0 486.006 59.696 A 15.697 15.697 0 0 0 488.7 61.95 Q 492.4 64.4 497 64.4 Q 500.8 64.4 504.2 62.55 Q 507.6 60.7 509.9 57.9 Z M 424.7 32.6 L 424.7 58.2 Q 427.3 60.9 430.7 62.65 Q 434.1 64.4 438.1 64.4 Q 444.794 64.4 449.017 59.216 A 17.38 17.38 0 0 0 449.15 59.05 A 18.792 18.792 0 0 0 452.644 51.745 Q 453.305 49.055 453.388 45.908 A 34.555 34.555 0 0 0 453.4 45 Q 453.4 39 451.25 34.7 Q 449.1 30.4 445.55 28.1 Q 442 25.8 437.7 25.8 A 14.741 14.741 0 0 0 432.073 26.863 A 14.054 14.054 0 0 0 429.95 27.95 Q 426.5 30.1 424.7 32.6 Z" vector-effect="non-scaling-stroke"/></g></svg>